<?xml version="1.0" standalone="no"?>
<!DOCTYPE svg PUBLIC "-//W3C//DTD SVG 20010904//EN"
 "http://www.w3.org/TR/2001/REC-SVG-20010904/DTD/svg10.dtd">
<svg version="1.0" xmlns="http://www.w3.org/2000/svg"
 width="110.000000pt" height="110.000000pt" viewBox="0 0 110.000000 110.000000"
 preserveAspectRatio="xMidYMid meet">
<metadata>
Created by potrace 1.14, written by Peter Selinger 2001-2017
</metadata>
<g transform="translate(0.000000,110.000000) scale(0.100000,-0.100000)"
fill="#000000" stroke="none">
<path d="M525 963 c-2 -8 -9 -12 -14 -8 -5 3 -16 -3 -23 -13 -7 -11 -17 -20
-23 -20 -5 -1 -12 -9 -14 -19 -2 -10 -6 -20 -10 -23 -14 -12 -35 -43 -23 -36
8 5 12 -1 12 -18 0 -14 5 -26 10 -26 6 0 10 -7 10 -15 0 -8 5 -15 11 -15 5 0
7 -4 4 -10 -3 -5 -2 -10 4 -10 20 0 61 -47 55 -64 -3 -9 -10 -13 -16 -10 -5 3
-4 12 4 22 12 14 10 14 -10 3 -12 -6 -27 -9 -33 -6 -5 4 -18 -2 -28 -14 -10
-11 -21 -18 -25 -14 -3 3 -6 -1 -6 -11 0 -9 -6 -19 -14 -22 -9 -4 -13 -15 -10
-31 3 -15 1 -22 -6 -18 -6 3 -10 -3 -10 -14 0 -12 -4 -21 -8 -21 -5 0 -9 -7
-9 -15 0 -8 4 -12 9 -9 14 9 9 -14 -8 -30 -8 -9 -13 -20 -10 -25 9 -14 -5 -42
-17 -34 -6 3 -7 1 -3 -6 4 -6 -5 -23 -21 -40 -22 -21 -37 -28 -63 -26 -19 1
-41 -3 -49 -9 -11 -8 -13 -8 -8 0 4 7 -5 11 -23 11 -18 0 -27 -4 -23 -11 4 -6
0 -5 -9 2 -12 10 -20 7 -44 -15 -16 -15 -33 -26 -39 -25 -5 2 -2 -5 8 -16 9
-10 17 -23 17 -29 0 -5 11 -15 25 -21 14 -7 30 -23 37 -37 8 -18 14 -22 24
-14 9 7 14 5 18 -9 7 -20 36 -26 36 -8 0 6 6 4 13 -5 8 -11 26 -16 55 -15 23
0 44 -4 46 -9 5 -14 142 -13 139 0 -2 13 140 13 149 0 8 -10 148 -16 148 -6 0
4 8 7 18 8 9 1 33 3 52 4 19 1 41 9 49 16 11 11 16 12 21 2 6 -8 11 -5 19 10
7 11 17 21 24 21 7 0 6 -4 -3 -10 -8 -5 -10 -10 -4 -10 15 0 90 71 86 83 -2 5
4 7 13 3 9 -3 13 -2 10 3 -3 5 0 13 6 16 7 5 -3 20 -25 41 -38 36 -56 43 -56
22 0 -9 -4 -8 -10 2 -9 13 -11 13 -20 0 -6 -10 -10 -11 -10 -2 0 6 -5 12 -11
12 -5 0 -7 -5 -3 -12 5 -7 3 -8 -7 -3 -17 11 -69 14 -69 4 0 -4 -16 8 -35 27
-19 18 -35 40 -35 49 0 8 -5 15 -11 15 -8 0 -8 4 0 14 8 10 8 16 -2 25 -8 6
-16 9 -19 6 -2 -3 -5 2 -5 10 0 8 5 12 10 8 5 -3 4 4 -2 14 -6 11 -7 23 -4 27
3 3 -2 16 -13 28 -12 14 -14 18 -4 13 12 -6 12 -5 3 5 -6 7 -9 19 -6 28 4 10
2 13 -5 8 -6 -3 -13 3 -17 14 -3 11 -13 20 -21 20 -8 0 -14 4 -14 9 0 11 -38
21 -56 14 -8 -3 -11 -10 -7 -17 4 -6 -1 -5 -11 3 -13 11 -14 16 -4 22 7 5 9 9
5 9 -12 0 52 60 64 60 6 0 9 7 5 15 -3 8 -1 15 4 15 5 0 6 7 3 17 -4 10 -2 14
5 9 6 -3 13 -2 17 4 3 5 2 10 -4 10 -6 0 -8 6 -5 14 3 7 -2 16 -11 20 -10 3
-15 12 -11 21 3 10 -1 15 -11 15 -9 0 -13 3 -10 6 8 9 -33 45 -43 39 -5 -3
-10 0 -12 7 -6 16 -46 17 -53 1z"/>
</g>
</svg>
